# xmcd
#
# Track frame offsets:
#	150
#	15498
#	31896
#	52794
#	65592
#	85065
#	102738
#	118386
#	137259
#	157932
#	181980
#	207003
#
# Disc length: 3049 seconds
# Revision: 0
# Processed by: cddbd v1.5.2PL0 Copyright (c) Steve Scherf et al.
# Submitted via: dBpowerAMP V12.0
#
DISCID=940be70c
DTITLE=Various Artist - Mercyland: Hymns for the Rest of Us
DYEAR=2012
DGENRE=Gospel
TTITLE0=The Civil Wars - From This Valley
TTITLE1=Shawn Mullins - Give God The Blues
TTITLE2=Buddy Miller - I Believe In You
TTITLE3=The Carolina Chocolate Drops - Lights In The Valley
TTITLE4=Phil Madeira - Mercyland
TTITLE5=Mat Kearney - Walking Over the Water
TTITLE6=Cindy Morgan - Leaning On You
TTITLE7=Amy Stroup - Fell Like a Feather
TTITLE8=North Mississippi Allstars - If I Was Jesus
TTITLE9=Dan Tyminski - Light Of Your Love
TTITLE10=Emmylou Harris - I Didn’t Know It Was You
TTITLE11=John Scofield - Peace In the Valley
EXTD=
EXTT0=
EXTT1=
EXTT2=
EXTT3=
EXTT4=
EXTT5=
EXTT6=
EXTT7=
EXTT8=
EXTT9=
EXTT10=
EXTT11=
PLAYORDER=
